<svg xmlns="http://www.w3.org/2000/svg" width="64" height="64" viewBox="0 0 64 64" preserveAspectRatio="xMidYMid meet" fill="none"><defs><linearGradient id="gold" x2=".75" y2="1"><stop offset="0" stop-color="#fff0bc"/><stop offset="0.25" stop-color="#d9af64"/><stop offset="0.5" stop-color="#8c572b"/><stop offset="0.75" stop-color="#e8c582"/><stop offset="1" stop-color="#644024"/></linearGradient><linearGradient id="silver" x2=".75" y2="1"><stop offset="0" stop-color="#e2eee4"/><stop offset="0.3333333333333333" stop-color="#91b8b6"/><stop offset="0.6666666666666666" stop-color="#284d59"/><stop offset="1" stop-color="#789693"/></linearGradient><linearGradient id="iron" x2=".75" y2="1"><stop offset="0" stop-color="#284752"/><stop offset="0.5" stop-color="#0c202a"/><stop offset="1" stop-color="#030f16"/></linearGradient><linearGradient id="ember" x2=".75" y2="1"><stop offset="0" stop-color="#fff1a5"/><stop offset="0.5" stop-color="#f4a054"/><stop offset="1" stop-color="#9d361f"/></linearGradient><linearGradient id="heart" x2=".75" y2="1"><stop offset="0" stop-color="#ffc2a2"/><stop offset="0.3333333333333333" stop-color="#e07059"/><stop offset="0.6666666666666666" stop-color="#a43232"/><stop offset="1" stop-color="#511928"/></linearGradient><linearGradient id="mint" x2=".75" y2="1"><stop offset="0" stop-color="#e0ffee"/><stop offset="0.5" stop-color="#a8e9d4"/><stop offset="1" stop-color="#317c80"/></linearGradient><linearGradient id="violet" x2=".75" y2="1"><stop offset="0" stop-color="#f1e0ff"/><stop offset="0.5" stop-color="#c4b1ec"/><stop offset="1" stop-color="#665590"/></linearGradient></defs><path d="M8 16 32 5 56 16 52 42 43 53 32 61 21 53 12 42Z" fill="url(#gold)" fill-rule="evenodd" stroke="#34281d" stroke-width="1.5" stroke-linejoin="round" stroke-linecap="round"/><path d="M15 20 32 12 49 20 45 39 38 49 32 54 26 49 19 39Z" fill="url(#iron)" fill-rule="evenodd" stroke="#34281d" stroke-width="1.5" stroke-linejoin="round" stroke-linecap="round"/><path d="M18 22 30 16 V47 L23 38Z" fill="url(#silver)" fill-rule="evenodd" stroke="#34281d" stroke-width="1.5" stroke-linejoin="round" stroke-linecap="round"/><path d="M35 18 45 23 42 36" fill="none" fill-rule="evenodd" stroke="#506c76" stroke-width="1" stroke-linejoin="round" stroke-linecap="round"/><circle cx="32" cy="9" r="1.5" fill="url(#silver)" stroke="#34281d" stroke-width="1"/><circle cx="32" cy="57" r="1.5" fill="url(#silver)" stroke="#34281d" stroke-width="1"/></svg>
